<?xml version="1.0" standalone="no"?>
<!DOCTYPE svg PUBLIC "-//W3C//DTD SVG 20010904//EN"
 "http://www.w3.org/TR/2001/REC-SVG-20010904/DTD/svg10.dtd">
<svg version="1.0" xmlns="http://www.w3.org/2000/svg"
 width="9000.000000pt" height="3413.000000pt" viewBox="0 0 9000.000000 3413.000000"
 preserveAspectRatio="xMidYMid meet">

<g transform="translate(0.000000,3413.000000) scale(0.100000,-0.100000)"
fill="#000000" stroke="none">
<path d="M6054 23416 c-19 -14 -19 -46 -24 -1669 -5 -1531 -6 -1656 -22 -1673
-92 -102 -1892 -1894 -1902 -1894 -8 0 -17 7 -20 16 -3 9 -6 247 -6 529 0 490
-1 514 -19 536 l-19 24 -576 0 -575 0 -23 -23 -23 -23 -2 -1122 c-2 -617 -3
-1143 -3 -1169 l0 -47 -430 -432 c-359 -360 -430 -436 -430 -459 0 -16 7 -30
16 -34 9 -3 493 -6 1076 -6 923 0 1064 2 1092 15 17 8 1462 1446 3211 3195
1817 1818 3186 3180 3196 3180 10 0 1107 -1091 2560 -2544 1398 -1400 2554
-2550 2570 -2556 44 -19 67 3 156 147 156 252 213 377 295 648 55 181 60 201
97 385 68 342 104 931 77 1275 -20 250 -60 505 -113 715 -26 107 -123 450
-133 473 -5 12 -30 76 -56 142 -95 248 -300 637 -425 805 -30 41 -80 110 -111
153 -30 43 -126 154 -212 247 -283 306 -606 546 -1003 744 -437 218 -969 361
-1553 416 -211 20 -276 20 -3431 20 -2761 0 -3218 -2 -3235 -14z"/>
<path d="M7553 19044 c-1657 -1658 -3013 -3019 -3013 -3024 0 -29 57 -31 812
-29 425 1 782 6 793 10 25 9 5237 5221 5249 5250 9 18 -37 67 -385 415 -306
306 -399 394 -419 394 -19 0 -652 -628 -3037 -3016z"/>
<path d="M13473 18914 c-167 -238 -383 -406 -638 -495 -96 -33 -276 -69 -348
-69 -30 -1 -60 -7 -72 -16 -20 -15 -20 -28 -23 -1258 -3 -1441 -17 -1283 115
-1296 267 -27 479 -105 664 -244 94 -71 211 -187 264 -261 104 -146 188 -340
222 -515 22 -111 21 -297 -1 -418 -42 -228 -172 -478 -335 -641 -108 -108
-217 -188 -352 -258 -51 -26 -195 -74 -289 -96 l-95 -22 -1884 -3 c-1749 -2
-1885 -1 -1903 14 -17 16 -18 67 -18 1385 0 1230 -2 1369 -16 1383 -8 9 -21
16 -28 16 -15 0 -2564 -2549 -2583 -2582 -10 -18 -12 -308 -13 -1415 l0 -1393
23 -15 c21 -14 350 -15 3113 -15 2647 0 3122 2 3319 15 127 9 237 17 245 20 8
2 71 11 140 20 554 70 1144 273 1595 548 337 206 765 602 955 882 70 104 198
296 220 330 10 17 68 129 128 250 115 229 185 405 247 615 20 69 43 145 50
170 8 25 21 77 29 115 9 39 27 122 41 185 39 177 65 365 80 590 25 360 -6 900
-71 1230 -53 268 -142 563 -219 728 l-46 97 -737 738 c-1226 1227 -1690 1689
-1704 1698 -25 16 -57 9 -75 -17z"/>
<path d="M9335 18338 c-11 -6 -23 -16 -27 -22 -4 -6 -8 -255 -8 -553 l0 -543
24 -15 c20 -14 89 -15 554 -13 495 3 533 4 549 21 17 16 18 54 21 530 2 342 0
524 -8 549 -8 27 -18 39 -42 47 -44 16 -1035 15 -1063 -1z"/>
<path d="M10738 18339 c-20 -8 -30 -21 -38 -50 -7 -25 -10 -214 -8 -549 3
-473 4 -511 21 -527 16 -17 54 -18 545 -21 376 -2 534 1 554 9 19 8 29 21 33
43 3 17 5 264 3 548 -3 481 -4 519 -21 535 -16 17 -53 18 -540 20 -334 1 -532
-2 -549 -8z"/>
<path d="M28285 18213 c-153 -14 -329 -64 -460 -131 -71 -36 -108 -64 -175
-132 -141 -141 -201 -292 -203 -510 -1 -188 45 -318 156 -437 143 -153 296
-222 740 -334 291 -73 379 -105 442 -161 53 -47 75 -89 75 -145 0 -185 -159
-295 -403 -279 -254 17 -430 154 -453 352 l-7 54 -263 0 -264 0 0 -59 c0 -129
51 -305 121 -424 46 -77 148 -186 220 -235 325 -220 862 -252 1224 -73 160 80
263 179 336 326 60 123 81 216 82 370 1 117 -2 138 -27 210 -85 250 -295 380
-826 514 -214 54 -310 86 -391 128 -136 70 -187 157 -159 272 23 98 118 167
260 190 285 46 508 -63 555 -273 l11 -51 130 -3 c71 -2 188 0 259 3 l131 7 -7
71 c-33 346 -264 606 -630 711 -144 41 -305 54 -474 39z"/>
<path d="M54355 18204 c-518 -93 -910 -488 -1027 -1037 -31 -147 -31 -409 0
-554 59 -272 169 -479 352 -663 236 -237 508 -355 845 -367 354 -13 678 112
924 356 92 91 197 229 184 242 -13 13 -442 259 -450 259 -5 -1 -26 -26 -48
-57 -80 -113 -246 -222 -395 -259 -87 -22 -253 -22 -345 0 -204 49 -373 190
-470 391 -65 135 -79 203 -78 375 0 177 19 256 94 410 45 90 64 117 138 190
95 95 194 154 311 186 102 28 282 24 382 -8 141 -46 261 -129 348 -239 l36
-46 203 147 c112 81 208 153 213 158 15 15 -3 40 -97 140 -186 198 -431 330
-699 377 -109 19 -313 18 -421 -1z"/>
<path d="M72890 18214 c-310 -37 -509 -121 -656 -276 -80 -84 -133 -179 -165
-293 -30 -107 -33 -309 -5 -400 55 -180 159 -299 348 -400 117 -61 255 -107
545 -180 361 -91 463 -144 493 -256 20 -73 -7 -169 -63 -227 -139 -145 -490
-130 -670 29 -55 48 -104 141 -115 219 l-7 55 -259 3 c-143 1 -263 -1 -268 -6
-12 -12 11 -187 38 -279 104 -359 402 -571 863 -614 332 -31 659 59 845 232
162 152 237 333 238 579 1 259 -103 421 -352 549 -115 59 -250 105 -487 166
-379 98 -502 156 -552 258 -63 130 13 269 174 320 98 31 302 31 387 -1 61 -22
129 -65 165 -103 31 -34 71 -119 79 -167 l7 -42 167 0 c92 0 209 3 260 7 l93
6 -6 71 c-11 126 -64 275 -136 380 -71 106 -230 229 -367 286 -140 58 -252 81
-414 85 -80 2 -161 1 -180 -1z"/>
<path d="M19870 16899 l0 -1291 643 5 c698 5 708 5 857 64 153 61 296 188 363
325 101 203 109 484 20 668 -36 74 -141 176 -225 219 l-66 33 70 35 c135 68
233 192 269 343 20 84 15 278 -10 373 -44 168 -151 317 -287 399 -83 51 -220
95 -336 107 -58 7 -340 11 -698 11 l-600 0 0 -1291z m1244 727 c92 -28 145
-84 160 -168 14 -81 -36 -178 -113 -217 -65 -34 -145 -41 -453 -41 l-298 0 0
220 0 220 328 0 c256 0 339 -3 376 -14z m-17 -981 c114 -34 177 -116 177 -230
0 -82 -31 -146 -93 -190 -82 -60 -121 -65 -464 -65 l-307 0 0 250 0 250 318 0
c253 0 329 -3 369 -15z"/>
<path d="M24303 18178 c-10 -13 -993 -2550 -993 -2562 0 -3 123 -6 274 -6
l274 0 48 123 c26 67 74 191 106 275 l60 152 501 -2 501 -3 100 -260 c56 -143
105 -266 109 -273 10 -15 547 -18 547 -2 0 6 -912 2370 -987 2558 -4 9 -67 12
-268 12 -198 0 -265 -3 -272 -12z m421 -1126 c75 -194 136 -355 136 -358 0 -2
-131 -4 -291 -4 -229 0 -290 3 -286 13 3 6 66 171 141 366 75 195 140 359 143
364 4 6 10 2 14 -9 4 -10 68 -178 143 -372z"/>
<path d="M31195 18178 c-3 -7 -4 -587 -3 -1288 l3 -1275 940 0 940 0 3 268 2
267 -670 0 -670 0 0 240 0 240 575 0 575 0 0 270 0 270 -575 0 -575 0 0 240 0
240 670 0 670 0 -2 268 -3 267 -938 3 c-745 2 -939 0 -942 -10z"/>
<path d="M34800 16900 l0 -1290 268 2 267 3 5 731 5 730 344 -710 c189 -391
350 -721 358 -734 l14 -22 276 2 277 3 355 733 356 733 3 -735 2 -736 270 0
270 0 0 1290 0 1290 -284 0 -283 0 -293 -602 c-161 -332 -378 -780 -483 -996
-105 -216 -194 -389 -197 -385 -4 5 -218 442 -475 973 -257 531 -473 975 -481
988 -14 22 -15 22 -294 22 l-280 0 0 -1290z"/>
<path d="M39695 18178 c-3 -7 -4 -587 -3 -1288 l3 -1275 940 0 940 0 3 268 2
267 -670 0 -670 0 0 240 0 240 575 0 575 0 0 270 0 270 -575 0 -575 0 0 240 0
240 670 0 670 0 -2 268 -3 267 -938 3 c-745 2 -939 0 -942 -10z"/>
<path d="M43295 18178 c-3 -7 -4 -587 -3 -1288 l3 -1275 270 0 270 0 5 871 5
871 580 -874 579 -873 288 0 288 0 0 1290 0 1290 -267 -2 -268 -3 -5 -869 -5
-868 -580 868 -580 869 -288 3 c-225 2 -289 0 -292 -10z"/>
<path d="M47240 17920 l0 -270 370 0 370 0 2 -1017 3 -1018 268 -3 267 -2 0
1020 0 1020 370 0 370 0 0 270 0 270 -1010 0 -1010 0 0 -270z"/>
<path d="M57295 18178 c-3 -7 -4 -587 -3 -1288 l3 -1275 268 -3 267 -2 0 465
0 465 93 0 92 0 318 -460 318 -459 289 -3 c160 -2 290 0 290 4 0 4 -146 220
-325 479 -179 260 -325 475 -325 478 0 4 33 19 74 34 222 83 384 265 447 502
28 104 31 343 7 452 -82 360 -345 569 -773 612 -160 16 -1034 15 -1040 -1z
m1096 -556 c134 -53 189 -128 189 -257 0 -130 -37 -198 -134 -245 -84 -41
-157 -50 -403 -50 l-213 0 0 291 0 291 253 -4 c232 -4 256 -6 308 -26z"/>
<path d="M61306 16908 c-273 -706 -496 -1286 -496 -1290 0 -5 123 -8 274 -8
l274 0 36 93 c19 50 66 173 104 272 l70 180 502 0 502 0 106 -272 105 -273
273 0 c151 0 274 4 274 9 0 4 -219 572 -486 1262 -267 690 -491 1266 -496
1282 l-10 27 -268 0 -267 0 -497 -1282z m909 166 c77 -201 142 -370 143 -375
2 -5 -115 -9 -288 -9 -173 0 -290 4 -288 9 49 137 284 741 288 741 3 0 68
-165 145 -366z"/>
<path d="M64990 16900 l0 -1290 270 0 270 0 0 510 0 510 570 0 570 0 0 270 0
270 -570 0 -570 0 0 240 0 240 665 0 665 0 -2 268 -3 267 -932 3 -933 2 0
-1290z"/>
<path d="M68417 18183 c-4 -3 -7 -125 -7 -270 l0 -263 370 0 370 0 2 -1017 3
-1018 268 -3 267 -2 0 1020 0 1020 370 0 370 0 0 270 0 270 -1003 0 c-552 0
-1007 -3 -1010 -7z"/>
<path d="M75795 18178 c-3 -7 -4 -587 -3 -1288 l3 -1275 270 0 270 0 5 728 5
728 354 -731 354 -730 279 2 279 3 353 728 c194 400 356 730 359 734 4 3 7
-325 7 -730 l0 -737 268 2 267 3 0 1285 0 1285 -284 0 -284 0 -481 -992 c-265
-545 -484 -989 -488 -985 -4 4 -222 450 -485 992 l-478 985 -283 3 c-221 2
-284 0 -287 -10z"/>
<path d="M80695 18178 c-3 -7 -4 -587 -3 -1288 l3 -1275 938 -3 937 -2 0 270
0 270 -670 0 -670 0 0 240 0 240 578 2 577 3 3 268 2 267 -580 0 -580 0 0 240
0 240 670 0 670 0 0 270 0 270 -935 0 c-739 0 -937 -3 -940 -12z"/>
<path d="M84295 18178 c-3 -7 -4 -587 -3 -1288 l3 -1275 270 0 270 0 5 869 5
868 577 -868 576 -869 291 -3 291 -2 0 1290 0 1290 -267 -2 -268 -3 -3 -875
-2 -875 -583 875 -583 875 -287 3 c-225 2 -289 0 -292 -10z"/>
<path d="M9317 16922 c-15 -17 -17 -70 -17 -559 0 -510 1 -541 18 -556 17 -15
70 -17 554 -17 531 0 535 0 554 21 18 20 19 44 19 561 0 523 -1 540 -19 554
-17 12 -109 14 -556 14 -507 0 -538 -1 -553 -18z"/>
<path d="M10714 16919 c-18 -20 -19 -44 -19 -556 l0 -535 24 -19 c22 -18 46
-19 557 -19 523 0 534 0 554 20 20 20 20 30 18 561 -3 522 -4 541 -22 555 -17
12 -109 14 -556 14 -533 0 -537 0 -556 -21z"/>
</g>
</svg>
